<svg xmlns="http://www.w3.org/2000/svg" stroke-miterlimit="1.41400003" width="48" height="48" fill-rule="evenodd" stroke-linejoin="round"><path d="M45.531 10.645a17.82 17.82 0 0 1-5.074 1.392 8.88 8.88 0 0 0 3.884-4.888 17.74 17.74 0 0 1-5.612 2.14A8.81 8.81 0 0 0 32.28 6.5c-4.877 0-8.834 3.951-8.834 8.829 0 .694.081 1.373.229 2.019-7.343-.371-13.854-3.887-18.212-9.227-.764 1.3-1.195 2.818-1.195 4.441 0 3.069 1.561 5.768 3.93 7.354-1.448-.046-2.813-.444-4.003-1.104v.108c0 4.28 3.042 7.854 7.087 8.667a8.98 8.98 0 0 1-2.328.307 8.93 8.93 0 0 1-1.661-.156 8.85 8.85 0 0 0 8.255 6.137 17.74 17.74 0 0 1-10.974 3.779c-.713 0-1.416-.04-2.108-.121A25.04 25.04 0 0 0 16.011 41.5c16.252 0 25.14-13.458 25.14-25.135 0-.385-.011-.764-.027-1.144 1.723-1.246 3.225-2.799 4.409-4.576z" fill="#123354" fill-rule="nonzero"/></svg>
